<svg xmlns="http://www.w3.org/2000/svg" width="32.37" height="25.432" viewBox="0 0 32.37 25.432"><g style="isolation:isolate"><path d="M4.758,20.51C1.956,17.93,0,14.725,0,12.716S1.956,7.5,4.758,4.921C6.753,3.084,10.892,0,16.185,0s9.432,3.084,11.427,4.921c2.8,2.581,4.758,5.785,4.758,7.794s-1.956,5.214-4.758,7.794c-2,1.838-6.134,4.922-11.427,4.922S6.753,22.348,4.758,20.51Z"/><path d="M0,6.645a6.645,6.645,0,1,1,6.645,6.644A6.652,6.652,0,0,1,0,6.645Z" transform="translate(9.541 6.071)" fill="none" stroke="#fff" stroke-width="1"/></g></svg>