<svg xmlns="http://www.w3.org/2000/svg" width="27.101" height="24.842" viewBox="0 0 27.101 24.842"><path d="M12.8,24.632c-.076-.05-1.867-1.231-2.891-2C2.352,16.967-1.215,10.394.37,5.049A6.66,6.66,0,0,1,6.572,0a7.313,7.313,0,0,1,4.961,2.028,9.871,9.871,0,0,1,1.973,3.11c.016.047.031.087.044.121.011-.028.023-.06.035-.1a9.878,9.878,0,0,1,1.982-3.134A7.315,7.315,0,0,1,20.529,0a6.66,6.66,0,0,1,6.2,5.049c1.585,5.344-1.983,11.917-9.544,17.584-1.024.767-2.815,1.948-2.891,2a1.426,1.426,0,0,1-1.491,0Z" fill="#f41b1b"/></svg>