<svg xmlns="http://www.w3.org/2000/svg" width="29.282" height="29.367" viewBox="0 0 29.282 29.367"><path d="M14.641,16.653a7.077,7.077,0,0,1-5.2-2.147A7.077,7.077,0,0,1,7.3,9.31,7.072,7.072,0,0,1,9.446,4.116a7.083,7.083,0,0,1,5.2-2.147,7.071,7.071,0,0,1,5.194,2.147,7.079,7.079,0,0,1,2.147,5.2,7.079,7.079,0,0,1-2.147,5.2,7.072,7.072,0,0,1-5.2,2.147Zm0,3.692a26.071,26.071,0,0,1,5.968.773,18.787,18.787,0,0,1,5.968,2.534q2.7,1.76,2.7,3.993v3.692H0V27.644q0-2.233,2.7-3.993a18.814,18.814,0,0,1,5.968-2.534,26,26,0,0,1,5.968-.773Z" transform="translate(0 -1.969)"/></svg>