<svg xmlns="http://www.w3.org/2000/svg" width="40.173" height="40.173" viewBox="0 0 40.173 40.173"><g transform="translate(1.125 1.125)"><path d="M22.412,7.636,16.43,9.373" transform="translate(0.326 -3.231)" fill="none" stroke="#000" stroke-linecap="round" stroke-linejoin="round" stroke-width="2.25"/><path d="M23.763,10.976,18.677,14.57" transform="translate(1.235 -1.88)" fill="none" stroke="#000" stroke-linecap="round" stroke-linejoin="round" stroke-width="2.25"/><path d="M26.059,13.7l-3.594,5.086" transform="translate(2.768 -0.777)" fill="none" stroke="#000" stroke-linecap="round" stroke-linejoin="round" stroke-width="2.25"/><path d="M28.864,15.311l-1.737,5.982" transform="translate(4.654 -0.126)" fill="none" stroke="#000" stroke-linecap="round" stroke-linejoin="round" stroke-width="2.25"/><path d="M42.423,23.462A18.962,18.962,0,1,1,23.462,4.5,18.962,18.962,0,0,1,42.423,23.462Z" transform="translate(-4.5 -4.5)" fill="none" stroke="#000" stroke-linecap="round" stroke-linejoin="round" stroke-width="2.25"/><path d="M35.456,23.073A18.962,18.962,0,0,1,18.044,5.228" transform="translate(0.979 -4.205)" fill="none" stroke="#000" stroke-linecap="round" stroke-linejoin="round" stroke-width="2.25"/><path d="M7.632,22.417l1.737-5.982" transform="translate(-3.233 0.328)" fill="none" stroke="#000" stroke-linecap="round" stroke-linejoin="round" stroke-width="2.25"/><path d="M10.972,23.767l3.594-5.086" transform="translate(-1.882 1.237)" fill="none" stroke="#000" stroke-linecap="round" stroke-linejoin="round" stroke-width="2.25"/><path d="M13.7,26.063l5.086-3.594" transform="translate(-0.779 2.77)" fill="none" stroke="#000" stroke-linecap="round" stroke-linejoin="round" stroke-width="2.25"/><path d="M15.306,28.868l5.982-1.737" transform="translate(-0.128 4.656)" fill="none" stroke="#000" stroke-linecap="round" stroke-linejoin="round" stroke-width="2.25"/><path d="M23.07,35.52A18.962,18.962,0,0,0,5.224,18.049" transform="translate(-4.207 0.981)" fill="none" stroke="#000" stroke-linecap="round" stroke-linejoin="round" stroke-width="2.25"/></g></svg>