<svg xmlns="http://www.w3.org/2000/svg" width="33.599" height="26.879" viewBox="0 0 33.599 26.879"><path d="M34.919,6H4.68A1.68,1.68,0,0,0,3,7.68V31.2a1.68,1.68,0,0,0,1.68,1.68H34.919A1.68,1.68,0,0,0,36.6,31.2V7.68A1.68,1.68,0,0,0,34.919,6Zm-1.68,18.479a5.04,5.04,0,0,0-5.04,5.04H11.4a5.04,5.04,0,0,0-5.04-5.04V14.4A5.04,5.04,0,0,0,11.4,9.36H28.2a5.04,5.04,0,0,0,5.04,5.04Z" transform="translate(-3 -6)"/><path d="M18.72,12a6.72,6.72,0,1,0,6.72,6.72A6.726,6.726,0,0,0,18.72,12Zm0,10.08a3.36,3.36,0,1,1,3.36-3.36A3.363,3.363,0,0,1,18.72,22.08Z" transform="translate(-1.92 -5.28)"/></svg>