<svg xmlns="http://www.w3.org/2000/svg" width="32.432" height="25.945" viewBox="0 0 32.432 25.945"><path d="M33.81,6H4.622A1.622,1.622,0,0,0,3,7.622v22.7a1.622,1.622,0,0,0,1.622,1.622H33.81a1.622,1.622,0,0,0,1.622-1.622V7.622A1.622,1.622,0,0,0,33.81,6ZM32.189,23.837A4.865,4.865,0,0,0,27.324,28.7H11.108a4.865,4.865,0,0,0-4.865-4.865V14.108a4.865,4.865,0,0,0,4.865-4.865H27.324a4.865,4.865,0,0,0,4.865,4.865Z" transform="translate(-3 -6)"/><path d="M18.486,12a6.486,6.486,0,1,0,6.486,6.486A6.493,6.493,0,0,0,18.486,12Zm0,9.729a3.243,3.243,0,1,1,3.243-3.243A3.246,3.246,0,0,1,18.486,21.729Z" transform="translate(-2.27 -5.514)"/></svg>