<svg xmlns="http://www.w3.org/2000/svg" width="12.626" height="15.782" viewBox="0 0 12.626 15.782">
  <g id="bxs-coin-stack" transform="translate(-6 -3)">
    <path id="Path_14" data-name="Path 14" d="M12.313,9.313c3.138,0,6.313-1.084,6.313-3.156S15.45,3,12.313,3,6,4.084,6,6.156,9.175,9.313,12.313,9.313Z" fill="#60e6f8"/>
    <path id="Path_15" data-name="Path 15" d="M6,13.578c0,2.072,3.175,3.156,6.313,3.156s6.313-1.084,6.313-3.156V12c0,2.072-3.175,3.156-6.313,3.156S6,14.072,6,12Z" transform="translate(0 -4.265)" fill="#60e6f8"/>
    <path id="Path_16" data-name="Path 16" d="M6,19.578c0,2.072,3.175,3.156,6.313,3.156s6.313-1.084,6.313-3.156V18c0,2.072-3.175,3.156-6.313,3.156S6,20.072,6,18Z" transform="translate(0 -7.109)" fill="#60e6f8"/>
    <path id="Path_17" data-name="Path 17" d="M6,25.578c0,2.072,3.175,3.156,6.313,3.156s6.313-1.084,6.313-3.156V24c0,2.072-3.175,3.156-6.313,3.156S6,26.072,6,24Z" transform="translate(0 -9.952)" fill="#60e6f8"/>
  </g>
</svg>
