<svg xmlns="http://www.w3.org/2000/svg" width="26.277" height="32.846" viewBox="0 0 26.277 32.846"><path d="M19.138,16.138c6.53,0,13.138-2.257,13.138-6.569S25.668,3,19.138,3,6,5.257,6,9.569,12.609,16.138,19.138,16.138Z" transform="translate(-6 -3)" fill="#60e6f8"/><path d="M6,15.285c0,4.313,6.609,6.569,13.138,6.569S32.277,19.6,32.277,15.285V12c0,4.313-6.609,6.569-13.138,6.569S6,16.313,6,12Z" transform="translate(-6 -2.146)" fill="#60e6f8"/><path d="M6,21.285c0,4.313,6.609,6.569,13.138,6.569S32.277,25.6,32.277,21.285V18c0,4.313-6.609,6.569-13.138,6.569S6,22.313,6,18Z" transform="translate(-6 -1.577)" fill="#60e6f8"/><path d="M6,27.285c0,4.313,6.609,6.569,13.138,6.569S32.277,31.6,32.277,27.285V24c0,4.313-6.609,6.569-13.138,6.569S6,28.313,6,24Z" transform="translate(-6 -1.008)" fill="#60e6f8"/></svg>