<svg xmlns="http://www.w3.org/2000/svg" width="31.982" height="39.977" viewBox="0 0 31.982 39.977"><path d="M21.991,18.991c7.947,0,15.991-2.746,15.991-8S29.938,3,21.991,3,6,5.746,6,11,14.043,18.991,21.991,18.991Z" transform="translate(-6 -3)"/><path d="M6,16c0,5.249,8.043,8,15.991,8s15.991-2.746,15.991-8V12c0,5.249-8.043,8-15.991,8S6,17.249,6,12Z" transform="translate(-6 -0.007)"/><path d="M6,22c0,5.249,8.043,8,15.991,8s15.991-2.746,15.991-8V18c0,5.249-8.043,8-15.991,8S6,23.249,6,18Z" transform="translate(-6 1.988)"/><path d="M6,28c0,5.249,8.043,8,15.991,8s15.991-2.746,15.991-8V24c0,5.249-8.043,8-15.991,8S6,29.249,6,24Z" transform="translate(-6 3.984)"/></svg>