<svg xmlns="http://www.w3.org/2000/svg" width="39.753" height="29.815" viewBox="0 0 39.753 29.815"><path d="M36.026,6.985H3.727A1.242,1.242,0,0,0,2.485,8.227V30.588A1.242,1.242,0,0,0,3.727,31.83h32.3a1.242,1.242,0,0,0,1.242-1.242V8.227A1.242,1.242,0,0,0,36.026,6.985ZM3.727,4.5A3.727,3.727,0,0,0,0,8.227V30.588a3.727,3.727,0,0,0,3.727,3.727h32.3a3.727,3.727,0,0,0,3.727-3.727V8.227A3.727,3.727,0,0,0,36.026,4.5Z" transform="translate(0 -4.5)" fill-rule="evenodd"/><path d="M11.25,18.7a1.242,1.242,0,0,1,1.242-1.242H29.884a1.242,1.242,0,0,1,0,2.485H12.492A1.242,1.242,0,0,1,11.25,18.7Zm0-6.211a1.242,1.242,0,0,1,1.242-1.242H29.884a1.242,1.242,0,0,1,0,2.485H12.492A1.242,1.242,0,0,1,11.25,12.492Zm0,12.423a1.242,1.242,0,0,1,1.242-1.242H29.884a1.242,1.242,0,0,1,0,2.485H12.492A1.242,1.242,0,0,1,11.25,24.915Z" transform="translate(1.173 -3.796)" fill-rule="evenodd"/><path d="M9.235,12.492A1.242,1.242,0,1,1,7.992,11.25,1.242,1.242,0,0,1,9.235,12.492Z" transform="translate(0.704 -3.796)"/><path d="M9.235,18.117a1.242,1.242,0,1,1-1.242-1.242A1.242,1.242,0,0,1,9.235,18.117Z" transform="translate(0.704 -3.21)"/><path d="M9.235,23.742A1.242,1.242,0,1,1,7.992,22.5,1.242,1.242,0,0,1,9.235,23.742Z" transform="translate(0.704 -2.623)"/></svg>