<svg xmlns="http://www.w3.org/2000/svg" width="33.599" height="33.6" viewBox="0 0 33.599 33.6"><path d="M34.671,18.736,31.159,2.881a2.243,2.243,0,0,0-2.672-1.7L12.632,4.69a2.24,2.24,0,0,0-1.7,2.672L12.4,14H3.365a2.243,2.243,0,0,0-2.24,2.24v16.24a2.243,2.243,0,0,0,2.24,2.24H19.6a2.243,2.243,0,0,0,2.24-2.24V23.871l11.124-2.464a2.243,2.243,0,0,0,1.7-2.671ZM19.6,32.484H3.365V16.245H12.9l1.544,6.973a2.236,2.236,0,0,0,2.671,1.7l2.492-.552,0,8.115ZM32.485,19.22,16.629,22.733,13.117,6.878,28.971,3.365l3.513,15.854Z" transform="translate(-1.125 -1.125)"/><path d="M5.625,18.563h2.8v2.8h-2.8Z" transform="translate(-1.145 -1.203)"/><path d="M5.625,27.563h2.8v2.8h-2.8Z" transform="translate(-1.145 -1.243)"/><path d="M14.625,27.563h2.8v2.8h-2.8Z" transform="translate(-1.186 -1.243)"/><path d="M10.125,23.063h2.8v2.8h-2.8Z" transform="translate(-1.165 -1.223)"/><path d="M15.852,8.615l2.734-.605.605,2.734-2.734.605Z" transform="translate(-1.191 -1.156)"/><path d="M26.587,15.451l2.734-.605.605,2.734-2.734.605Z" transform="translate(-1.239 -1.186)"/><path d="M21.221,12.03l2.734-.605.605,2.734-2.734.605Z" transform="translate(-1.215 -1.171)"/></svg>