<svg xmlns="http://www.w3.org/2000/svg" width="25.945" height="25.946" viewBox="0 0 25.945 25.946"><path d="M27.029,14.724,24.317,2.481a1.732,1.732,0,0,0-2.063-1.315L10.011,3.878A1.73,1.73,0,0,0,8.7,5.941l1.136,5.13H2.855a1.732,1.732,0,0,0-1.73,1.73v12.54a1.732,1.732,0,0,0,1.73,1.73H15.4a1.732,1.732,0,0,0,1.73-1.73V18.69l8.59-1.9a1.732,1.732,0,0,0,1.315-2.063ZM15.4,25.34H2.855V12.8h7.361l1.192,5.384A1.726,1.726,0,0,0,13.47,19.5l1.924-.426,0,6.267ZM25.341,15.1,13.1,17.81,10.385,5.567,22.628,2.855,25.341,15.1Z" transform="translate(-1.125 -1.125)"/><path d="M5.625,18.563H7.787v2.162H5.625Z" transform="translate(-2.166 -5.158)"/><path d="M5.625,27.563H7.787v2.162H5.625Z" transform="translate(-2.166 -7.239)"/><path d="M14.625,27.563h2.162v2.162H14.625Z" transform="translate(-4.247 -7.239)"/><path d="M10.125,23.063h2.162v2.162H10.125Z" transform="translate(-3.206 -6.198)"/><path d="M15.852,8.477l2.111-.467.467,2.111-2.111.467Z" transform="translate(-4.531 -2.717)"/><path d="M26.587,15.313l2.111-.467.467,2.111-2.111.467Z" transform="translate(-7.013 -4.298)"/><path d="M21.221,11.892l2.111-.467.467,2.111L21.688,14Z" transform="translate(-5.772 -3.507)"/></svg>