<svg xmlns="http://www.w3.org/2000/svg" width="32.845" height="32.846" viewBox="0 0 32.845 32.846"><path d="M33.918,18.341l-3.433-15.5a2.193,2.193,0,0,0-2.612-1.665L12.374,4.61A2.19,2.19,0,0,0,10.71,7.222l1.438,6.494H3.315a2.193,2.193,0,0,0-2.19,2.19V31.781a2.193,2.193,0,0,0,2.19,2.19H19.19a2.193,2.193,0,0,0,2.19-2.19v-8.42l10.874-2.409a2.193,2.193,0,0,0,1.664-2.611ZM19.19,31.78H3.315V15.906h9.318l1.509,6.816a2.186,2.186,0,0,0,2.611,1.664l2.436-.539,0,7.933ZM31.781,18.815l-15.5,3.433-3.433-15.5,15.5-3.434,3.434,15.5Z" transform="translate(-1.125 -1.125)" fill="#60e6f8"/><path d="M5.625,18.563H8.363V21.3H5.625Z" transform="translate(-1.246 -1.592)" fill="#60e6f8"/><path d="M5.625,27.563H8.363V30.3H5.625Z" transform="translate(-1.246 -1.834)" fill="#60e6f8"/><path d="M14.625,27.563h2.738V30.3H14.625Z" transform="translate(-1.487 -1.834)" fill="#60e6f8"/><path d="M10.125,23.063h2.738V25.8H10.125Z" transform="translate(-1.366 -1.713)" fill="#60e6f8"/><path d="M15.852,8.6l2.672-.592.592,2.672-2.672.592Z" transform="translate(-1.52 -1.309)" fill="#60e6f8"/><path d="M26.587,15.438l2.672-.592.592,2.672-2.672.592Z" transform="translate(-1.808 -1.493)" fill="#60e6f8"/><path d="M21.221,12.017l2.672-.592.592,2.672-2.672.592Z" transform="translate(-1.664 -1.401)" fill="#60e6f8"/></svg>