<svg xmlns="http://www.w3.org/2000/svg" width="41.036" height="41.078" viewBox="0 0 41.036 41.078"><path d="M20.518,41.078a20.131,20.131,0,0,1-7.975-1.623A20.08,20.08,0,0,1,1.623,28.534a20.409,20.409,0,0,1,0-15.95A20.5,20.5,0,0,1,5.991,6.033a20.879,20.879,0,0,1,6.553-4.39,20.174,20.174,0,0,1,15.95,0,20.773,20.773,0,0,1,6.552,4.388,20.577,20.577,0,0,1,4.368,6.552,20.409,20.409,0,0,1,0,15.95,20.076,20.076,0,0,1-10.92,10.92,20.184,20.184,0,0,1-7.975,1.623Zm0-35.908A15.314,15.314,0,0,0,5.129,20.54a15.11,15.11,0,0,0,2.064,7.735A15.268,15.268,0,0,0,12.8,33.886a15.456,15.456,0,0,0,15.429,0,15.268,15.268,0,0,0,5.611-5.611,15.11,15.11,0,0,0,2.064-7.735A15.314,15.314,0,0,0,20.518,5.17Zm7.694,8.977-5.249,7.094A2.516,2.516,0,0,1,19,22.6a2.569,2.569,0,0,1-.922-1.283l-7.814-9.738V10.3h1.283l9.017,7.254,6.372-4.689h1.283v1.283Z"/></svg>