<svg xmlns="http://www.w3.org/2000/svg" width="25.945" height="25.944" viewBox="0 0 25.945 25.944"><path d="M12.972,25.944A12.725,12.725,0,0,1,7.93,24.918a12.693,12.693,0,0,1-6.9-6.9,12.9,12.9,0,0,1,0-10.084,12.693,12.693,0,0,1,6.9-6.9,12.9,12.9,0,0,1,10.084,0,12.693,12.693,0,0,1,6.9,6.9,12.9,12.9,0,0,1,0,10.084,12.693,12.693,0,0,1-6.9,6.9,12.725,12.725,0,0,1-5.042,1.026ZM21.941,6.055a11.221,11.221,0,0,0-4.434-3.471l-4.535,2.28L8.437,2.584a11.419,11.419,0,0,0-4.46,3.471l.886.431v4.865L1.672,13.758a11.059,11.059,0,0,0,2,5.7H8.107l1.622,4.054v.329a11.164,11.164,0,0,0,6.486,0v-.329l1.622-4.054H22.27a11.059,11.059,0,0,0,2-5.7l-3.193-2.407V6.486ZM10.464,16.19,8.918,11.705l4.054-2.787,4.054,2.787L15.48,16.19Z"/></svg>