<svg xmlns="http://www.w3.org/2000/svg" width="32.845" height="32.845" viewBox="0 0 32.845 32.845"><path d="M16.422,32.845a16.11,16.11,0,0,1-6.383-1.3,16.069,16.069,0,0,1-8.74-8.74,16.329,16.329,0,0,1,0-12.766A16.069,16.069,0,0,1,10.04,1.3a16.329,16.329,0,0,1,12.766,0,16.069,16.069,0,0,1,8.74,8.74,16.329,16.329,0,0,1,0,12.766,16.069,16.069,0,0,1-8.74,8.74,16.11,16.11,0,0,1-6.383,1.3ZM27.777,7.666a14.206,14.206,0,0,0-5.613-4.394L16.422,6.158,10.681,3.272A14.457,14.457,0,0,0,5.035,7.666l1.122.546V14.37L2.117,17.417A14,14,0,0,0,4.65,24.634h5.613l2.053,5.132v.417a14.133,14.133,0,0,0,8.211,0v-.417l2.053-5.132h5.613a14,14,0,0,0,2.534-7.217L26.685,14.37V8.211ZM13.247,20.5,11.29,14.818l5.132-3.528,5.132,3.528L19.6,20.5Z" fill="#60e6f8"/></svg>