<svg xmlns="http://www.w3.org/2000/svg" width="33.599" height="33.599" viewBox="0 0 33.599 33.599"><path d="M16.8,33.6A16.479,16.479,0,0,1,10.27,32.27a16.438,16.438,0,0,1-8.941-8.941,16.7,16.7,0,0,1,0-13.059A16.438,16.438,0,0,1,10.27,1.329a16.7,16.7,0,0,1,13.059,0A16.438,16.438,0,0,1,32.27,10.27a16.7,16.7,0,0,1,0,13.059,16.438,16.438,0,0,1-8.941,8.941A16.479,16.479,0,0,1,16.8,33.6ZM28.414,7.842a14.532,14.532,0,0,0-5.742-4.495L16.8,6.3,10.926,3.347A14.788,14.788,0,0,0,5.151,7.842L6.3,8.4v6.3L2.165,17.817A14.321,14.321,0,0,0,4.757,25.2H10.5l2.1,5.25v.427a14.458,14.458,0,0,0,8.4,0v-.427l2.1-5.25H28.84a14.321,14.321,0,0,0,2.592-7.382L27.3,14.7V8.4ZM13.551,20.966l-2-5.808L16.8,11.55l5.25,3.609-2,5.808Z"/></svg>