<svg xmlns="http://www.w3.org/2000/svg" width="37" height="37" viewBox="0 0 37 37"><path d="M4.62,37A4.626,4.626,0,0,1,0,32.379V4.62A4.626,4.626,0,0,1,4.62,0H24.449a4.625,4.625,0,0,1,4.619,4.62V32.38a3.311,3.311,0,0,0,6.623,0V13.206a.655.655,0,1,1,1.309,0V32.38A4.626,4.626,0,0,1,32.379,37Z" fill="#eaeaea"/><path d="M15.169,0H.653a.653.653,0,1,0,0,1.306H15.169a.653.653,0,0,0,0-1.306Z" transform="translate(6.176 27.783)" fill="#908e8e"/><path d="M15.169,0H.653a.653.653,0,0,0,0,1.306H15.169a.653.653,0,0,0,0-1.306Z" transform="translate(6.176 20.862)" fill="#908e8e"/><path d="M2.631,9.216A2.633,2.633,0,0,1,0,6.586V2.631A2.634,2.634,0,0,1,2.631,0H14.5a2.634,2.634,0,0,1,2.631,2.631V6.586A2.633,2.633,0,0,1,14.5,9.216Z" transform="translate(5.523 6.029)" fill="#2491e2"/></svg>