<svg xmlns="http://www.w3.org/2000/svg" width="37.584" height="36.517" viewBox="0 0 37.584 36.517"><path d="M37.584,22.227A4.488,4.488,0,0,1,33.1,26.706H32.013A2.017,2.017,0,0,0,30,28.719v7.8l0,0-9-8.985a3.134,3.134,0,0,0-1.986-.821H4.486A4.488,4.488,0,0,1,0,22.227V4.48A4.489,4.489,0,0,1,4.486,0H33.1a4.489,4.489,0,0,1,4.486,4.48Z" fill="#dead04"/><g transform="translate(7.782 8.234)"><line x2="22.02" fill="none" stroke="#fff" stroke-width="3"/><line x2="22.02" transform="translate(0 4.943)" fill="none" stroke="#fff" stroke-width="3"/><line x2="22.02" transform="translate(0 9.887)" fill="none" stroke="#fff" stroke-width="3"/></g></svg>