<svg xmlns="http://www.w3.org/2000/svg" width="23.511" height="41.486" viewBox="0 0 23.511 41.486"><g transform="translate(0 0)"><g transform="translate(0 8.388) rotate(-45)"><path d="M.419.842A5.951,5.951,0,0,1,5.926,6.35a.444.444,0,0,0,.435.42.4.4,0,0,0,.407-.42A6.791,6.791,0,0,0,.419,0,.4.4,0,0,0,0,.408.444.444,0,0,0,.419.842Z" transform="translate(0 5.094)" fill="#6291db"/><path d="M.419.841a11.044,11.044,0,0,1,10.6,10.6.432.432,0,0,0,.428.42.409.409,0,0,0,.412-.42A11.886,11.886,0,0,0,.419,0,.409.409,0,0,0,0,.413.432.432,0,0,0,.419.841Z" transform="translate(0 0)" fill="#6291db"/></g><g transform="translate(8.389 24.709) rotate(45)"><path d="M.419,5.927A5.951,5.951,0,0,0,5.926.42.444.444,0,0,1,6.361,0a.4.4,0,0,1,.407.42A6.791,6.791,0,0,1,.419,6.768.4.4,0,0,1,0,6.362.444.444,0,0,1,.419,5.927Z" transform="translate(0 0)" fill="#6291db"/><path d="M.419,11.022A11.044,11.044,0,0,0,11.022.42.432.432,0,0,1,11.45,0a.409.409,0,0,1,.412.42A11.886,11.886,0,0,1,.419,11.863.409.409,0,0,1,0,11.45.432.432,0,0,1,.419,11.022Z" transform="translate(0 0)" fill="#6291db"/></g><path d="M4.773,20.213a.062.062,0,0,0-.024-.039H1.171A1.317,1.317,0,0,1,0,18.752v-.9a3,3,0,0,1,.531-1.56,7.031,7.031,0,0,0,.963-1.929,9.4,9.4,0,0,0,.445-2.937,7.55,7.55,0,0,1,3.9-6.9,3.585,3.585,0,0,1-.3-1.436A2.862,2.862,0,0,1,8.1,0a2.862,2.862,0,0,1,2.561,3.084,3.577,3.577,0,0,1-.3,1.436,7.551,7.551,0,0,1,3.9,6.9,9.416,9.416,0,0,0,.445,2.937,7.028,7.028,0,0,0,.963,1.929,3,3,0,0,1,.531,1.56v.9a1.306,1.306,0,0,1-1.136,1.424H11.447a.1.1,0,0,0-.019.038,3.628,3.628,0,0,1-3.327,3.3A3.629,3.629,0,0,1,4.773,20.213Z" transform="translate(0 28.555) rotate(-90)" fill="#6291db"/></g></svg>