<svg xmlns="http://www.w3.org/2000/svg" xmlns:xlink="http://www.w3.org/1999/xlink" width="32.37" height="32.37" viewBox="0 0 32.37 32.37"><defs><clipPath id="a"><path d="M16.185-27.63A16.185,16.185,0,0,0,32.37-43.815,16.185,16.185,0,0,0,16.185-60,16.185,16.185,0,0,0,0-43.815,16.185,16.185,0,0,0,16.185-27.63Z" transform="translate(0 60)" fill="none" clip-rule="evenodd"/></clipPath><clipPath id="b"><path d="M-200,573.729H425.824V-160H-200Z" transform="translate(200 160)" fill="none"/></clipPath><linearGradient id="c" x1="0.667" y1="0.167" x2="0.417" y2="0.75" gradientUnits="objectBoundingBox"><stop offset="0" stop-color="#37aee2"/><stop offset="0.1" stop-color="#34acdf"/><stop offset="0.2" stop-color="#32a9dd"/><stop offset="0.3" stop-color="#2fa7da"/><stop offset="0.4" stop-color="#2da4d8"/><stop offset="0.5" stop-color="#2ba2d5"/><stop offset="0.6" stop-color="#28a0d2"/><stop offset="0.7" stop-color="#259dd0"/><stop offset="0.8" stop-color="#239bcd"/><stop offset="0.9" stop-color="#2098cb"/><stop offset="1" stop-color="#1e96c8"/></linearGradient><clipPath id="d"><path d="M22.658-27.187c-.524,0-.435-.2-.616-.7L20.5-32.959,32.369-40" transform="translate(-20.5 40)" fill="none" clip-rule="evenodd"/></clipPath><clipPath id="f"><path d="M24.5-19.772a1.037,1.037,0,0,0,.809-.4l2.158-2.1L24.775-23.9" transform="translate(-24.5 23.898)" fill="none" clip-rule="evenodd"/></clipPath><clipPath id="h"><path d="M19.125-32.213l6.523,4.819c.744.411,1.282.2,1.467-.691L29.769-40.6c.272-1.09-.415-1.584-1.127-1.261l-15.59,6.012c-1.064.427-1.058,1.021-.194,1.285l4,1.249,9.262-5.844c.437-.265.839-.123.509.17" transform="translate(-12.23 41.955)" fill="none" clip-rule="evenodd"/></clipPath><linearGradient id="j" x1="0.537" y1="0.5" x2="0.61" y2="0.667" gradientUnits="objectBoundingBox"><stop offset="0" stop-color="#eff7fc"/><stop offset="0.1" stop-color="#f1f8fc"/><stop offset="0.2" stop-color="#f2f9fd"/><stop offset="0.3" stop-color="#f4f9fd"/><stop offset="0.4" stop-color="#f5fafd"/><stop offset="0.5" stop-color="#f7fbfe"/><stop offset="0.6" stop-color="#f9fcfe"/><stop offset="0.7" stop-color="#fafdfe"/><stop offset="0.8" stop-color="#fcfdfe"/><stop offset="0.9" stop-color="#fdfeff"/><stop offset="1" stop-color="#fff"/></linearGradient></defs><g transform="translate(0 0)" clip-path="url(#a)"><g transform="translate(-107.901 -53.951)" clip-path="url(#b)"><g transform="translate(107.901 53.951)"><path d="M0,0H32.37V32.37H0Z" fill="url(#c)"/></g></g></g><g transform="translate(11.06 10.79)" clip-path="url(#d)"><g transform="translate(-118.961 -64.741)" clip-path="url(#b)"><path d="M15.5-45H32.764v18.208H15.5Z" transform="translate(100.763 107.043)" fill="#c7daea"/></g></g><g transform="translate(13.218 19.477)" clip-path="url(#f)"><g transform="translate(-121.119 -73.428)" clip-path="url(#b)"><path d="M19.5-28.9h8.362v9.521H19.5Z" transform="translate(98.921 99.629)" fill="#a9c9dd"/></g></g><g transform="translate(6.598 9.735)" clip-path="url(#h)"><g transform="translate(-114.499 -63.686)" clip-path="url(#b)"><g transform="translate(107.901 53.951)"><path d="M-12.23-18.045h32.37v32.37H-12.23Z" transform="translate(12.23 18.045)" fill="url(#j)"/></g></g></g></svg>