<svg xmlns="http://www.w3.org/2000/svg" width="29.447" height="25.24" viewBox="0 0 29.447 25.24"><g transform="translate(29.447 25.24) rotate(180)"><path d="M22.611,4.207h.526V14.723h-.526a3.178,3.178,0,0,0-1.109.2,3.5,3.5,0,0,0-1.027.608,9.725,9.725,0,0,0-.821.756q-.328.345-.8.887-.132.148-.2.23a18.374,18.374,0,0,0-1.84,2.383q-.23.362-.624,1.117-.016.049-.173.37t-.3.591q-.148.271-.329.583a2.905,2.905,0,0,1-.353.5.468.468,0,0,1-.3.19,3.29,3.29,0,0,1-1.9-.5,1.8,1.8,0,0,1-.731-1.6,4.063,4.063,0,0,1,.246-1.389,5.036,5.036,0,0,1,.542-1.117,9.26,9.26,0,0,0,.542-.9,1.792,1.792,0,0,0,.246-.8H4.207a2.028,2.028,0,0,1-1.463-.632,2.035,2.035,0,0,1-.017-2.95,2.021,2.021,0,0,1,1.479-.624H9.645a2.223,2.223,0,0,1-.411-.78,2.95,2.95,0,0,1-.164-.913,2.6,2.6,0,0,1,.871-1.956,2.273,2.273,0,0,1-.3-1.134A2.771,2.771,0,0,1,9.933,6.63a1.828,1.828,0,0,1,.78-.862,5.686,5.686,0,0,1-.065-.92,2.56,2.56,0,0,1,.8-2.07A3.351,3.351,0,0,1,13.672,2.1a9.822,9.822,0,0,1,3.007.526q1.626.526,3.188,1.052a8.762,8.762,0,0,0,2.744.526Zm4.733,1.052a1.067,1.067,0,1,1-.312-.739A1.011,1.011,0,0,1,27.344,5.259Zm2.1,9.465V4.207a2.026,2.026,0,0,0-.616-1.487A2.029,2.029,0,0,0,27.344,2.1H22.611a13.636,13.636,0,0,1-3.664-.969A15.9,15.9,0,0,0,13.738,0a5.509,5.509,0,0,0-3.78,1.274,4.466,4.466,0,0,0-1.43,3.574l.016.082a4.535,4.535,0,0,0-1,2.925,5.015,5.015,0,0,0,.049.707,4.429,4.429,0,0,0-.608,1.956H4.207a4.034,4.034,0,0,0-2.966,1.249A4.075,4.075,0,0,0,0,14.74a4.024,4.024,0,0,0,1.249,2.941A4.043,4.043,0,0,0,4.207,18.93h6.145a6.059,6.059,0,0,0-.362,2.1,3.8,3.8,0,0,0,1.339,3.106,5.167,5.167,0,0,0,3.394,1.1,2.31,2.31,0,0,0,1.142-.288,2.826,2.826,0,0,0,.9-.813,9.3,9.3,0,0,0,.666-1.036q.28-.51.608-1.183t.542-1.019a17.967,17.967,0,0,1,1.643-2.12q.033-.049.23-.28t.312-.353q.115-.123.337-.353a4.36,4.36,0,0,1,.394-.37l.37-.3a1.484,1.484,0,0,1,.386-.23,1,1,0,0,1,.353-.074h4.733a2.1,2.1,0,0,0,2.1-2.1Z" transform="translate(0 0)"/></g></svg>