<svg xmlns="http://www.w3.org/2000/svg" width="35.737" height="33.503" viewBox="0 0 35.737 33.503"><path d="M31.27,27.928V18.993a13.4,13.4,0,1,0-26.8,0v8.934c-.329,3.184-4.4,2.351-4.467,0V18.993a17.868,17.868,0,1,1,35.737,0v8.934C35.408,31.111,31.341,30.278,31.27,27.928Zm-23.452-6.7h2.234a1.117,1.117,0,0,1,1.117,1.117V33.511a1.117,1.117,0,0,1-1.117,1.117H7.817A1.117,1.117,0,0,1,6.7,33.511V22.344A1.117,1.117,0,0,1,7.817,21.227Zm17.868,0h2.234a1.116,1.116,0,0,1,1.117,1.117V33.511a1.116,1.116,0,0,1-1.117,1.117H25.686a1.116,1.116,0,0,1-1.117-1.117V22.344A1.116,1.116,0,0,1,25.686,21.227Z" transform="translate(0 -1.125)"/></svg>