<svg xmlns="http://www.w3.org/2000/svg" width="32.567" height="32.567" viewBox="0 0 32.567 32.567"><path d="M28.5,26.461H25.443a1.032,1.032,0,0,1-1.018-1.018V15.266a1.032,1.032,0,0,1,1.018-1.018h1.018a10.3,10.3,0,0,0-2.623-7.443Q21.214,4.07,16.284,4.071T8.73,6.806a10.3,10.3,0,0,0-2.623,7.443H7.124a1.032,1.032,0,0,1,1.018,1.018V25.443a1.032,1.032,0,0,1-1.018,1.018H6.106a4.071,4.071,0,0,0,4.071,4.071h2.035A2.008,2.008,0,0,1,14.248,28.5h2.035a1.969,1.969,0,0,1,1.447.588,1.943,1.943,0,0,1,.588,1.431,2.007,2.007,0,0,1-.588,1.447,1.938,1.938,0,0,1-1.447.6H10.177a5.887,5.887,0,0,1-4.325-1.781,5.893,5.893,0,0,1-1.781-4.325A3.436,3.436,0,0,1,1.192,24.68,7.587,7.587,0,0,1,0,20.355,8.192,8.192,0,0,1,.556,17.3a5.522,5.522,0,0,1,1.479-2.195v-.859A13.929,13.929,0,0,1,3.164,8.714a13.994,13.994,0,0,1,7.585-7.585,14.128,14.128,0,0,1,11.068,0,14.356,14.356,0,0,1,4.549,3.037A14.258,14.258,0,0,1,29.4,8.714a13.977,13.977,0,0,1,1.129,5.535v.859A5.522,5.522,0,0,1,32.011,17.3a8.192,8.192,0,0,1,.556,3.053,7.594,7.594,0,0,1-1.192,4.325A3.437,3.437,0,0,1,28.5,26.461Z" fill="#dead04"/></svg>