<svg xmlns="http://www.w3.org/2000/svg" width="26.967" height="21.461" viewBox="0 0 26.967 21.461"><path d="M23.679,12.988v8.029a1.085,1.085,0,0,1-1.071,1.071H16.185V15.665H11.9v6.423H5.48a1.085,1.085,0,0,1-1.071-1.071V12.988a.223.223,0,0,1,.009-.05.223.223,0,0,0,.009-.05l9.618-7.929,9.618,7.929a.229.229,0,0,1,.017.1Zm3.73-1.154-1.037,1.238a.567.567,0,0,1-.351.184h-.05a.515.515,0,0,1-.351-.117L14.044,3.488,2.469,13.139a.621.621,0,0,1-.4.117.567.567,0,0,1-.351-.184L.68,11.834a.541.541,0,0,1-.117-.393.489.489,0,0,1,.182-.36L12.773,1.062a2.073,2.073,0,0,1,2.542,0L19.4,4.474V1.213a.516.516,0,0,1,.536-.536h3.212a.516.516,0,0,1,.536.536V8.038l3.663,3.045a.487.487,0,0,1,.184.36.541.541,0,0,1-.117.393Z" transform="translate(-0.562 -0.627)"/></svg>