<svg xmlns="http://www.w3.org/2000/svg" width="29.282" height="23.303" viewBox="0 0 29.282 23.303"><path d="M25.663,14.049v8.718A1.178,1.178,0,0,1,24.5,23.93H17.526V16.955H12.877V23.93H5.9a1.178,1.178,0,0,1-1.163-1.163V14.049a.242.242,0,0,1,.009-.055.242.242,0,0,0,.009-.055L15.2,5.331,25.645,13.94a.249.249,0,0,1,.018.109ZM29.714,12.8,28.588,14.14a.616.616,0,0,1-.381.2h-.055a.559.559,0,0,1-.381-.127L15.2,3.733,2.633,14.213a.674.674,0,0,1-.436.127.616.616,0,0,1-.381-.2L.69,12.8a.587.587,0,0,1-.127-.426.531.531,0,0,1,.2-.39L13.821,1.1a2.251,2.251,0,0,1,2.76,0l4.432,3.7V1.263a.56.56,0,0,1,.582-.582h3.487a.56.56,0,0,1,.582.582v7.41l3.978,3.306a.528.528,0,0,1,.2.39.587.587,0,0,1-.127.426Z" transform="translate(-0.562 -0.627)"/></svg>