<svg xmlns="http://www.w3.org/2000/svg" width="20.082" height="33.228" viewBox="0 0 20.082 33.228"><g transform="translate(32.493 39.099) rotate(180)"><g transform="translate(14.033 7.484)"><path d="M.46,29.485A1.518,1.518,0,0,1,.308,27.48l.152-.173L13.047,14.968.46,2.629A1.518,1.518,0,0,1,.308.624L.46.451A1.6,1.6,0,0,1,2.505.3l.176.149,13.7,13.428a1.518,1.518,0,0,1,.152,2.005l-.152.173L2.682,29.485A1.593,1.593,0,0,1,.46,29.485Z" transform="translate(0)" stroke="#000" stroke-width="3"/></g></g></svg>