<svg xmlns="http://www.w3.org/2000/svg" width="39.821" height="28.442" viewBox="0 0 39.821 28.442"><path d="M22.035,14.339a1.787,1.787,0,1,0,1.791,1.787A1.788,1.788,0,0,0,22.035,14.339Z" transform="translate(2.505 -4.746)"/><path d="M25.121,17.429a1.783,1.783,0,1,0,1.791,1.787A1.782,1.782,0,0,0,25.121,17.429Z" transform="translate(3.321 -3.93)"/><path d="M10.238,12.963a3.523,3.523,0,1,0,3.489,3.524,3.511,3.511,0,0,0-3.489-3.524Zm-.01,5.252a1.728,1.728,0,1,1,1.715-1.728A1.724,1.724,0,0,1,10.228,18.215Z" transform="translate(-1.06 -5.109)"/><path d="M25.121,11.25a1.786,1.786,0,1,0,1.791,1.787A1.786,1.786,0,0,0,25.121,11.25Z" transform="translate(3.321 -5.562)"/><path d="M28.213,14.339A1.787,1.787,0,1,0,30,16.126,1.787,1.787,0,0,0,28.213,14.339Z" transform="translate(4.136 -4.746)"/><path d="M40.85,20.337c-1.881-7.864-3.878-12.043-7.861-13.229A7.96,7.96,0,0,0,30.7,6.75c-2.452,0-4.172,1.3-8.54,1.3s-6.089-1.3-8.538-1.3a7.913,7.913,0,0,0-2.287.359C7.346,8.295,5.349,12.474,3.471,20.338s-1.541,13.542.683,14.6a2.559,2.559,0,0,0,1.109.252c1.928,0,4.012-2.119,6.013-4.627,2.28-2.853,2.854-2.929,9.8-2.929h2.164c6.946,0,7.521.075,9.8,2.929,2,2.507,4.086,4.623,6.015,4.623a2.547,2.547,0,0,0,1.107-.25c2.222-1.061,2.565-6.736.685-14.6Zm-1.3,13.319a1.1,1.1,0,0,1-.494.114,3.7,3.7,0,0,1-2.071-1.04,20.886,20.886,0,0,1-2.833-3.043,7.415,7.415,0,0,0-3.869-3.017c-1.479-.426-3.433-.454-7.045-.454H21.075c-3.612,0-5.565.028-7.045.454a7.4,7.4,0,0,0-3.868,3.014,21.069,21.069,0,0,1-2.832,3.045A3.7,3.7,0,0,1,5.26,33.769a1.118,1.118,0,0,1-.494-.114c-.849-.4-2.006-4.237.088-12.989C6.755,12.7,8.621,9.4,11.739,8.472a6.542,6.542,0,0,1,1.881-.3,10.335,10.335,0,0,1,2.65.466,21.173,21.173,0,0,0,5.888.838,21.216,21.216,0,0,0,5.886-.838A10.371,10.371,0,0,1,30.7,8.172a6.6,6.6,0,0,1,1.884.3c3.115.927,4.981,4.232,6.884,12.2,2.091,8.751.934,12.583.085,12.989Z" transform="translate(-2.249 -6.75)"/></svg>