<svg xmlns="http://www.w3.org/2000/svg" width="41.036" height="22.77" viewBox="0 0 41.036 22.77"><path d="M43.366,18.3a.887.887,0,0,0-.888-.806H23.861a10.938,10.938,0,1,0,.2,4.626H28.2v5.9h.007a.892.892,0,0,0,.89.829.325.325,0,0,0,.035,0v.005h2.877a.892.892,0,0,0,.89-.829h.008v-5.9h2.348V31.25h.007a.9.9,0,0,0,.89.831h2.9a.9.9,0,0,0,.89-.831h.007V22.122h2.526a.9.9,0,0,0,.9-.9h0V18.3ZM13.284,26.607a6.279,6.279,0,1,1,6.275-6.279,6.286,6.286,0,0,1-6.275,6.279Z" transform="translate(-2.34 -9.311)"/></svg>