<svg xmlns="http://www.w3.org/2000/svg" width="31.059" height="22.176" viewBox="0 0 31.059 22.176"><path d="M9.48,14.386a1.345,1.345,0,1,0,1.338,1.345A1.341,1.341,0,0,0,9.48,14.386Z" transform="translate(-2.329 -6.865)"/><path d="M32.357,17.349c-1.47-6.135-3.023-9.393-6.135-10.315a6.18,6.18,0,0,0-1.782-.277c-1.914,0-3.252,1.019-6.662,1.019S13.03,6.757,11.116,6.757a6.112,6.112,0,0,0-1.782.277C6.222,7.956,4.669,11.221,3.2,17.349S2,27.914,3.733,28.739a2.017,2.017,0,0,0,.867.194c1.5,0,3.126-1.649,4.693-3.6,1.782-2.225,2.225-2.287,7.646-2.287h1.685c5.414,0,5.864.055,7.646,2.287,1.56,1.955,3.188,3.6,4.693,3.6a2.04,2.04,0,0,0,.867-.194c1.726-.832,1.99-5.262.526-11.389ZM9.4,18.369a2.745,2.745,0,1,1,2.717-2.745A2.737,2.737,0,0,1,9.4,18.369ZM21.39,17.017a1.393,1.393,0,1,1,1.393-1.393A1.394,1.394,0,0,1,21.39,17.017Zm3.043,3.042a1.39,1.39,0,1,1,1.393-1.386A1.392,1.392,0,0,1,24.433,20.06Zm0-6.086a1.393,1.393,0,1,1,1.393-1.393A1.394,1.394,0,0,1,24.433,13.974Zm3.043,3.043a1.393,1.393,0,1,1,1.393-1.393A1.394,1.394,0,0,1,27.476,17.017Z" transform="translate(-2.246 -6.757)"/></svg>