<svg xmlns="http://www.w3.org/2000/svg" width="37.75" height="26.953" viewBox="0 0 37.75 26.953"><path d="M9.768,14.386a1.634,1.634,0,1,0,1.626,1.634A1.629,1.629,0,0,0,9.768,14.386Z" transform="translate(-1.077 -5.244)"/><path d="M38.843,19.631c-1.787-7.457-3.674-11.416-7.457-12.538a7.512,7.512,0,0,0-2.165-.337C26.895,6.757,25.269,8,21.124,8s-5.771-1.239-8.1-1.239a7.429,7.429,0,0,0-2.165.337C7.079,8.214,5.191,12.183,3.4,19.631s-1.457,12.841.648,13.843a2.452,2.452,0,0,0,1.053.236c1.829,0,3.8-2,5.7-4.381,2.165-2.7,2.7-2.78,9.293-2.78h2.048c6.58,0,7.127.067,9.293,2.78,1.9,2.376,3.875,4.381,5.7,4.381a2.479,2.479,0,0,0,1.053-.236c2.1-1.011,2.418-6.4.64-13.843Zm-27.9,1.239a3.336,3.336,0,1,1,3.3-3.336A3.326,3.326,0,0,1,10.947,20.87Zm14.568-1.643a1.693,1.693,0,1,1,1.693-1.693A1.694,1.694,0,0,1,25.514,19.228Zm3.7,3.7a1.689,1.689,0,1,1,1.693-1.685A1.692,1.692,0,0,1,29.212,22.926Zm0-7.4a1.693,1.693,0,1,1,1.693-1.693A1.694,1.694,0,0,1,29.212,15.528Zm3.7,3.7A1.693,1.693,0,1,1,34.6,17.534,1.694,1.694,0,0,1,32.911,19.228Z" transform="translate(-2.246 -6.757)"/></svg>