<svg xmlns="http://www.w3.org/2000/svg" width="34.808" height="30.457" viewBox="0 0 34.808 30.457"><path d="M6,9.676A2.176,2.176,0,0,1,8.176,7.5H38.633a2.176,2.176,0,0,1,0,4.351H8.176A2.176,2.176,0,0,1,6,9.676Z" transform="translate(-6 -7.5)"/><path d="M6,27.676A2.176,2.176,0,0,1,8.176,25.5H38.633a2.176,2.176,0,0,1,0,4.351H8.176A2.176,2.176,0,0,1,6,27.676Z" transform="translate(-6 0.606)"/><path d="M17.176,16.5a2.176,2.176,0,1,0,0,4.351h17.4a2.176,2.176,0,0,0,0-4.351Z" transform="translate(-1.947 -3.447)"/></svg>