<svg xmlns="http://www.w3.org/2000/svg" width="16.595" height="29.367" viewBox="0 0 16.595 29.367"><path d="M8.948,12.925a14.526,14.526,0,0,1,5.583,2.447A5.555,5.555,0,0,1,16.6,20.037a5.06,5.06,0,0,1-1.568,3.9,7.961,7.961,0,0,1-4.092,1.912v3.518H6.041V25.849A8.307,8.307,0,0,1,1.8,23.708,6.067,6.067,0,0,1,0,19.578H3.594q.306,3.442,4.894,3.442a4.921,4.921,0,0,0,3.365-.918,2.689,2.689,0,0,0,.994-1.989,3.1,3.1,0,0,0-1.033-2.295,8.727,8.727,0,0,0-3.862-1.682Q.306,14.3.306,9.406A5.1,5.1,0,0,1,1.912,5.62a8.185,8.185,0,0,1,4.129-2.1V0h4.894V3.594a6.748,6.748,0,0,1,3.786,2.295,6.455,6.455,0,0,1,1.414,3.9H12.542q-.153-3.442-4.053-3.442a5.529,5.529,0,0,0-3.25.841A2.6,2.6,0,0,0,4.053,9.406a2.376,2.376,0,0,0,1.071,1.95,12.317,12.317,0,0,0,3.824,1.568Z"/></svg>