<svg xmlns="http://www.w3.org/2000/svg" width="35.737" height="36.967" viewBox="0 0 35.737 36.967"><path d="M26.209,36.93q-1.675.037-8.339.037T9.53,36.93A40.83,40.83,0,0,1,2.4,36.3Q0,35.777,0,34.548a12.388,12.388,0,0,1,.744-3q.744-2.252,1.638-4.728a50.231,50.231,0,0,0,1.638-5.7,25.476,25.476,0,0,0,.744-5.641q0-7.148,13.1-7.148t13.1,7.148a25.473,25.473,0,0,0,.744,5.64,50.231,50.231,0,0,0,1.638,5.7q.893,2.476,1.638,4.728a12.388,12.388,0,0,1,.744,3q0,1.228-2.4,1.75A40.714,40.714,0,0,1,26.209,36.93ZM17.869,16.678a12.878,12.878,0,0,1,4.226.6q1.694.6,1.731,1.75v.037a1.191,1.191,0,0,0,2.382,0q0-4.356-7.148-4.728V13.1a1.191,1.191,0,0,0-2.382,0v1.228Q9.53,14.7,9.53,19.06a3.745,3.745,0,0,0,.242,1.415,2.248,2.248,0,0,0,.781.987,5.043,5.043,0,0,0,1.173.633,6.9,6.9,0,0,0,1.675.353q1.041.112,2.011.149t2.457.037a12.646,12.646,0,0,1,4.262.614q1.693.614,1.693,1.77t-1.694,1.768a12.717,12.717,0,0,1-4.261.614,12.878,12.878,0,0,1-4.226-.6q-1.694-.6-1.731-1.75v-.037a1.191,1.191,0,0,0-2.382,0q0,4.356,7.148,4.728v1.228a1.191,1.191,0,0,0,2.382,0V29.745q7.148-.373,7.148-4.728,0-4.765-8.339-4.765-.522,0-1.3.018t-1.266.037q-.485.018-1.079,0a6.048,6.048,0,0,1-.968-.093,4.284,4.284,0,0,1-.708-.2.943.943,0,0,1-.484-.373,1.072,1.072,0,0,1-.149-.577q0-1.154,1.713-1.768A12.685,12.685,0,0,1,17.869,16.678Zm0-10.721a34.459,34.459,0,0,0-4.1.224,29.779,29.779,0,0,1-1.322-3.034,7.427,7.427,0,0,1-.54-1.955q0-.6.968-1.191a8.509,8.509,0,0,0,2.27.856,11.477,11.477,0,0,0,2.718.335A11.477,11.477,0,0,0,20.588.856,8.509,8.509,0,0,0,22.858,0q.968.6.968,1.191a7.43,7.43,0,0,1-.54,1.954A29.779,29.779,0,0,1,21.965,6.18a34.458,34.458,0,0,0-4.1-.224Z"/></svg>