<svg xmlns="http://www.w3.org/2000/svg" width="41.036" height="27.357" viewBox="0 0 41.036 27.357"><path d="M16.414,19.15h8.207V17.1H21.886V7.523H19.45l-3.164,2.928,1.646,1.71a7.138,7.138,0,0,0,1.175-1.219h.042V17.1H16.414Zm10.943-5.471a10.8,10.8,0,0,1-.449,3.036,11.5,11.5,0,0,1-1.272,2.863,6.626,6.626,0,0,1-2.169,2.159,5.635,5.635,0,0,1-5.9,0A6.6,6.6,0,0,1,15.4,19.577a11.548,11.548,0,0,1-1.272-2.865,10.483,10.483,0,0,1,0-6.071A11.528,11.528,0,0,1,15.4,7.779a6.6,6.6,0,0,1,2.168-2.158,5.635,5.635,0,0,1,5.9,0A6.64,6.64,0,0,1,25.635,7.78a11.448,11.448,0,0,1,1.272,2.863,10.853,10.853,0,0,1,.449,3.036ZM38.3,19.15V8.207a5.274,5.274,0,0,1-3.869-1.6,5.266,5.266,0,0,1-1.6-3.869H8.207A5.274,5.274,0,0,1,6.6,6.6a5.266,5.266,0,0,1-3.869,1.6V19.15a5.274,5.274,0,0,1,3.869,1.6,5.266,5.266,0,0,1,1.6,3.869H32.829A5.472,5.472,0,0,1,38.3,19.15ZM41.036,1.368V25.989a1.386,1.386,0,0,1-1.368,1.368H1.368a1.317,1.317,0,0,1-.962-.406A1.309,1.309,0,0,1,0,25.989V1.368A1.317,1.317,0,0,1,.406.406,1.309,1.309,0,0,1,1.368,0h38.3a1.317,1.317,0,0,1,.962.406,1.309,1.309,0,0,1,.406.962Z"/></svg>