<svg xmlns="http://www.w3.org/2000/svg" width="33.599" height="33.594" viewBox="0 0 33.599 33.594"><path d="M16.8,2.1A6.824,6.824,0,0,0,9.973,8.924a6.261,6.261,0,0,0,.034.86,6.776,6.776,0,0,0,.252,1.107l.4,1.4L9.2,12.228a6.824,6.824,0,1,0,4.949,11.2,1.05,1.05,0,0,1,1.772,1.087l-.007.01-.012.032-.05.116q-.438.976-.92,1.932a46.99,46.99,0,0,1-2.659,4.613.176.176,0,0,0,0,.189.174.174,0,0,0,.063.076.076.076,0,0,0,.046.013h8.819a.081.081,0,0,0,.046-.012.193.193,0,0,0,.061-.074.184.184,0,0,0,0-.191,48.029,48.029,0,0,1-3.578-6.544l-.05-.113-.012-.032,0-.008a1.05,1.05,0,0,1,1.759-1.1,7,7,0,0,0,5.241,2.452,6.824,6.824,0,1,0-.292-13.644l-1.468.065.418-1.409a6.027,6.027,0,0,0,.292-1.947V8.924A6.824,6.824,0,0,0,16.8,2.1Zm4.634,25.246c.472.85,1.023,1.781,1.638,2.717a2.285,2.285,0,0,1-1.863,3.531H12.388a2.285,2.285,0,0,1-1.863-3.534c.611-.929,1.159-1.848,1.629-2.694a8.924,8.924,0,1,1-4.214-17.19q-.01-.067-.019-.134A8.463,8.463,0,0,1,7.874,8.95V8.924a8.924,8.924,0,1,1,17.847,0,7.769,7.769,0,0,1-.084,1.251,8.924,8.924,0,0,1-.966,17.8,8.789,8.789,0,0,1-3.24-.625Z" transform="translate(-0.007 0)" fill-rule="evenodd"/></svg>