<svg xmlns="http://www.w3.org/2000/svg" width="25.949" height="25.945" viewBox="0 0 25.949 25.945"><path d="M12.975,1.622A5.27,5.27,0,0,0,7.7,6.892a4.835,4.835,0,0,0,.026.664,5.233,5.233,0,0,0,.195.855l.308,1.078L7.11,9.444a5.27,5.27,0,1,0,3.822,8.65.811.811,0,0,1,1.369.84l-.005.008-.009.025-.039.089q-.338.754-.711,1.492A36.291,36.291,0,0,1,9.483,24.11a.136.136,0,0,0,0,.146.134.134,0,0,0,.049.058.058.058,0,0,0,.035.01H16.38a.062.062,0,0,0,.035-.009.149.149,0,0,0,.047-.057.142.142,0,0,0,0-.148A37.093,37.093,0,0,1,13.7,19.055l-.039-.087-.009-.025,0-.006a.811.811,0,0,1,1.359-.85,5.406,5.406,0,0,0,4.047,1.894,5.27,5.27,0,1,0-.226-10.538l-1.134.05.323-1.088a4.655,4.655,0,0,0,.226-1.5v-.01a5.271,5.271,0,0,0-5.269-5.27Zm3.579,19.5c.365.657.79,1.375,1.265,2.1a1.765,1.765,0,0,1-1.439,2.727H9.569a1.765,1.765,0,0,1-1.439-2.729c.472-.717.9-1.427,1.258-2.081A6.892,6.892,0,1,1,6.134,7.859q-.008-.052-.014-.1a6.536,6.536,0,0,1-.037-.843v-.02a6.892,6.892,0,1,1,13.784,0,6,6,0,0,1-.065.966A6.892,6.892,0,0,1,19.055,21.6a6.788,6.788,0,0,1-2.5-.483Z" transform="translate(-0.007 0)" fill-rule="evenodd"/></svg>