<svg xmlns="http://www.w3.org/2000/svg" width="32.85" height="32.846" viewBox="0 0 32.85 32.846"><path d="M16.423,2.053A6.672,6.672,0,0,0,9.751,8.725a6.121,6.121,0,0,0,.033.841,6.625,6.625,0,0,0,.246,1.082l.39,1.365L9,11.956a6.672,6.672,0,1,0,4.838,10.95,1.026,1.026,0,0,1,1.733,1.063l-.006.01-.012.031-.049.113q-.428.955-.9,1.889a45.944,45.944,0,0,1-2.6,4.51.173.173,0,0,0,0,.184.17.17,0,0,0,.062.074.074.074,0,0,0,.045.013h8.622a.079.079,0,0,0,.045-.012.189.189,0,0,0,.059-.072.179.179,0,0,0,0-.187,46.959,46.959,0,0,1-3.5-6.4l-.049-.11-.012-.031,0-.008A1.026,1.026,0,0,1,19,22.9a6.844,6.844,0,0,0,5.124,2.4,6.672,6.672,0,1,0-.286-13.34l-1.435.063.409-1.378a5.893,5.893,0,0,0,.286-1.9V8.725a6.672,6.672,0,0,0-6.67-6.672Zm4.531,24.684c.462.831,1,1.741,1.6,2.657a2.234,2.234,0,0,1-1.821,3.452H12.112a2.234,2.234,0,0,1-1.821-3.455c.6-.908,1.133-1.807,1.593-2.634A8.725,8.725,0,1,1,7.764,9.95q-.01-.066-.018-.131A8.274,8.274,0,0,1,7.7,8.751V8.725a8.725,8.725,0,1,1,17.45,0,7.6,7.6,0,0,1-.083,1.224,8.725,8.725,0,0,1-.944,17.4,8.593,8.593,0,0,1-3.168-.611Z" transform="translate(-0.007 0)" fill="#60e6f8" fill-rule="evenodd"/></svg>